<svg width="339" height="319" viewBox="0 0 339 319" fill="none" xmlns="http://www.w3.org/2000/svg">
<g clip-path="url(#clip0_1_1387)">
<rect width="338.623" height="317.929" transform="translate(0.0697021 0.535278)" fill="white"/>
<path fill-rule="evenodd" clip-rule="evenodd" d="M0.0697021 0.535278V318.475H338.693V0.535278H0.0697021Z" fill="url(#paint0_linear_1_1387)"/>
<g opacity="0.1">
<path d="M290.211 161.095C287.689 167.5 284.647 173.858 280.822 180.03C261.682 210.915 229.702 229.568 205.501 239.992C210.924 240.636 216.601 241.109 222.579 241.109C235.093 241.109 248.469 239.343 261.222 234.326C304.358 217.339 324.019 169.576 324.019 169.576C324.019 169.576 309.898 163.906 290.211 161.095Z" fill="white"/>
<path d="M55.1173 180.02C51.2988 173.848 48.2512 167.495 45.7339 161.095C26.0425 163.905 11.9217 169.576 11.9217 169.576C11.9217 169.576 31.5765 217.339 74.7164 234.326C87.4635 239.343 100.839 241.109 113.358 241.109C119.336 241.109 125.018 240.636 130.44 239.992C106.235 229.568 74.2572 210.91 55.1173 180.02Z" fill="white"/>
<path d="M209.452 215.674C228.172 205.965 248.994 191.274 262.19 169.89C290.989 123.186 272.407 62.5334 272.407 62.5334C272.407 62.5334 245.285 68.8588 218.291 85.8183C226.998 102.166 233.89 121.888 233.89 143.387C233.89 171.829 221.826 197.159 209.452 215.674Z" fill="white"/>
<path d="M126.489 215.674C114.114 197.159 102.05 171.829 102.05 143.387C102.05 121.888 108.942 102.166 117.649 85.8183C90.6548 68.8588 63.5337 62.5334 63.5337 62.5334C63.5337 62.5334 44.9524 123.186 73.7516 169.89C86.9472 191.274 107.769 205.965 126.489 215.674Z" fill="white"/>
<path d="M167.69 54.0551C167.69 54.0551 123.667 93.9094 123.667 143.08C123.667 192.243 167.69 232.101 167.69 232.101C167.69 232.101 211.709 192.243 211.709 143.08C211.709 93.9094 167.69 54.0551 167.69 54.0551Z" fill="white"/>
</g>
</g>
<defs>
<linearGradient id="paint0_linear_1_1387" x1="-100.628" y1="11.3707" x2="-100.628" y2="518.404" gradientUnits="userSpaceOnUse">
<stop stop-color="#E8D5A2"/>
<stop offset="0.603071" stop-color="#EFBF99"/>
<stop offset="1" stop-color="#F3B093"/>
</linearGradient>
<clipPath id="clip0_1_1387">
<rect width="338.623" height="317.929" fill="white" transform="translate(0.0697021 0.535278)"/>
</clipPath>
</defs>
</svg>
