<svg width="340" height="319" viewBox="0 0 340 319" fill="none" xmlns="http://www.w3.org/2000/svg">
<g clip-path="url(#clip0_1_1396)">
<rect width="338.623" height="317.929" transform="translate(0.634689 0.873169)" fill="white"/>
<path fill-rule="evenodd" clip-rule="evenodd" d="M0.634689 0.873169V318.812H339.466V0.873169H0.634689Z" fill="url(#paint0_linear_1_1396)"/>
<g opacity="0.0353827">
<path fill-rule="evenodd" clip-rule="evenodd" d="M267.192 206.073C269.177 200.148 265.666 193.836 259.351 191.974C231.166 183.664 219.197 136.306 216.391 118.842C215.98 116.368 214.619 113.97 214.619 113.97C209.443 104.729 189.851 100.417 187.646 100.168C183.685 99.7209 183.182 96.879 183.015 95.9128C189.934 91.3977 194.606 80.4967 194.606 70.6514C194.605 56.1119 192.97 44.3248 171.857 44.3248H170.206C149.093 44.3248 147.457 56.1119 147.457 70.6514C147.457 80.4967 152.129 91.3977 159.048 95.9128C158.881 96.879 158.224 99.769 154.417 100.168C152.044 100.418 129.552 105.398 126.529 116.151C126.529 116.151 126.157 117.688 125.932 118.885C125.931 118.889 125.929 118.901 125.926 118.923L125.921 118.957C125.738 120.153 123.334 135.888 116.599 152.929C110.65 167.977 99.9947 186.966 83.0077 191.974C76.6928 193.836 73.1831 200.148 75.1673 206.073C76.7626 210.835 81.4217 213.893 86.4668 213.945C76.3652 219.395 74.8867 226.995 74.8867 230.933C74.8867 232.498 75.7491 237.587 79.6904 242.276C83.2285 246.491 90.2827 251.515 103.785 251.515C105.811 251.515 107.953 251.402 110.154 251.18C119.13 250.274 128.182 248.914 136.934 247.599L136.948 247.597C140.127 247.119 143.303 246.643 146.483 246.186C150.719 245.575 158.355 245.171 169.176 244.985H172.886C183.707 245.171 191.344 245.576 195.579 246.186C198.76 246.643 201.935 247.119 205.114 247.597L205.129 247.599C213.88 248.914 222.932 250.274 231.908 251.18C234.109 251.402 236.252 251.515 238.277 251.515C251.779 251.515 258.834 246.49 262.372 242.276C266.313 237.587 267.175 232.498 267.175 230.933C267.175 226.994 265.697 219.394 255.593 213.944C255.607 213.944 255.62 213.944 255.633 213.945C255.646 213.945 255.659 213.946 255.672 213.947C255.702 213.948 255.732 213.95 255.761 213.95C260.857 213.95 265.583 210.875 267.192 206.073ZM127.166 204.65C121.087 206.424 119.691 206.611 114.49 207.304C112.798 207.527 110.718 207.805 107.962 208.204C105.264 208.474 102.79 208.835 100.509 209.269C116.14 201.167 128.746 185.72 138.089 163.171C138.611 167.564 138.933 172.403 138.933 177.723C138.933 195.082 129.562 203.949 127.166 204.65ZM233.301 208.089C233.561 208.126 233.827 208.165 234.099 208.204C236.984 208.492 239.613 208.885 242.022 209.36C226.181 201.215 213.439 185.544 204.039 162.605C203.478 167.147 203.129 172.175 203.129 177.724C203.129 195.082 211.194 205.411 227.572 207.304C229.099 207.479 230.937 207.746 233.301 208.089Z" fill="black"/>
</g>
</g>
<defs>
<linearGradient id="paint0_linear_1_1396" x1="6.40838" y1="11.7086" x2="6.40838" y2="318.812" gradientUnits="userSpaceOnUse">
<stop stop-color="#E8977E"/>
<stop offset="1" stop-color="#D88AA1"/>
</linearGradient>
<clipPath id="clip0_1_1396">
<rect width="338.623" height="317.929" fill="white" transform="translate(0.634689 0.873169)"/>
</clipPath>
</defs>
</svg>
