<svg width="340" height="319" viewBox="0 0 340 319" fill="none" xmlns="http://www.w3.org/2000/svg">
<g clip-path="url(#clip0_1_1261)">
<rect width="338.623" height="317.929" transform="translate(0.703125 0.535278)" fill="white"/>
<path fill-rule="evenodd" clip-rule="evenodd" d="M0.703125 0.535278V318.475H339.336V0.535278H0.703125Z" fill="url(#paint0_linear_1_1261)"/>
<mask id="mask0_1_1261" style="mask-type:luminance" maskUnits="userSpaceOnUse" x="0" y="0" width="340" height="319">
<path fill-rule="evenodd" clip-rule="evenodd" d="M0.703125 0.535278V318.475H339.336V0.535278H0.703125Z" fill="white"/>
</mask>
<g mask="url(#mask0_1_1261)">
<g opacity="0.41644">
<g opacity="0.643003">
<path fill-rule="evenodd" clip-rule="evenodd" d="M231.967 281.447L193.939 227.862L155.91 281.447H231.967Z" fill="#7A9FBC"/>
<path fill-rule="evenodd" clip-rule="evenodd" d="M231.225 281.447H193.724V227.862L231.225 281.447Z" fill="#598CBD"/>
<path fill-rule="evenodd" clip-rule="evenodd" d="M193.803 227.862V244.144C193.406 245.373 192.976 246.571 191.379 246.571C188.283 246.571 190.605 241.741 187.767 242.074C185.302 242.363 181.477 247.172 178.485 249.197L193.803 227.862Z" fill="#C6D9E4"/>
<path fill-rule="evenodd" clip-rule="evenodd" d="M202.703 241.062C201.532 240.341 200.621 239.94 200.264 240.144C198.789 240.981 200.755 243.326 198.789 243.995C196.822 244.665 198.051 241.149 195.593 241.651C194.404 241.894 194.078 243.078 193.724 244.235V227.862L202.703 241.062Z" fill="#9EB9DD"/>
<path fill-rule="evenodd" clip-rule="evenodd" d="M153.001 292.819C139.557 281.642 128.201 271.901 114.074 256.821C109.943 252.412 104.495 245.694 100.848 245.039C91.053 243.282 82.2099 252.34 74.2299 260.996C65.5239 270.44 56.8179 279.885 48.1118 289.329C63.5518 295.847 79.9208 291.157 95.9177 291.826C112.623 292.525 129.013 299.108 145.69 300.768C148.135 301.011 150.777 301.069 152.803 298.932C154.829 296.795 155.629 291.605 153.709 289.244" fill="#CCEFEA"/>
<path fill-rule="evenodd" clip-rule="evenodd" d="M74.3512 260.863C82.0318 252.636 90.6199 244.04 99.873 244.875V291.696C98.63 291.585 97.3859 291.498 96.1398 291.446C80.0686 290.783 63.6235 295.435 48.1118 288.969C56.8582 279.6 65.6048 270.232 74.3512 260.863Z" fill="#E2F8F7"/>
<path fill-rule="evenodd" clip-rule="evenodd" d="M178.712 268.966L143.325 218.854L107.937 268.966H178.712Z" fill="#7A9FBC"/>
<path fill-rule="evenodd" clip-rule="evenodd" d="M178.317 268.966H142.929V218.854L178.317 268.966Z" fill="#598CBD"/>
<path fill-rule="evenodd" clip-rule="evenodd" d="M143.08 218.854V234C142.711 235.143 142.311 236.257 140.823 236.257C137.941 236.257 140.103 231.765 137.461 232.074C135.166 232.343 131.605 236.817 128.819 238.7L143.08 218.854Z" fill="#C6D9E4"/>
<path fill-rule="evenodd" clip-rule="evenodd" d="M151.38 231.653C150.278 230.954 149.421 230.566 149.084 230.763C147.696 231.575 149.547 233.849 147.696 234.498C145.845 235.148 147.002 231.738 144.688 232.225C143.569 232.461 143.262 233.608 142.929 234.731V218.854L151.38 231.653Z" fill="#9EB9DD"/>
<path fill-rule="evenodd" clip-rule="evenodd" d="M106.933 318.959L62.5662 255.947L18.1992 318.959H106.933Z" fill="#7A9FBC"/>
<path fill-rule="evenodd" clip-rule="evenodd" d="M106.588 318.959H62.2214V255.947L106.588 318.959Z" fill="#598CBD"/>
<path fill-rule="evenodd" clip-rule="evenodd" d="M62.119 255.947V275.259C61.6539 276.715 61.1506 278.136 59.2772 278.136C55.6475 278.136 58.3697 272.408 55.0427 272.803C52.1534 273.146 47.6689 278.849 44.1611 281.251L62.119 255.947Z" fill="#C6D9E4"/>
<path fill-rule="evenodd" clip-rule="evenodd" d="M73.3131 271.546C71.8664 270.694 70.7418 270.221 70.3002 270.461C68.4781 271.451 70.9072 274.222 68.4781 275.013C66.0485 275.805 67.5669 271.649 64.5302 272.242C63.0615 272.53 62.6587 273.929 62.2214 275.297V255.947L73.3131 271.546Z" fill="#9EB9DD"/>
<path fill-rule="evenodd" clip-rule="evenodd" d="M125.997 277.978C125.997 281.951 143.378 285.172 164.818 285.172C186.258 285.172 203.639 281.951 203.639 277.978C203.639 274.005 186.258 270.784 164.818 270.784C143.378 270.784 125.997 274.005 125.997 277.978Z" fill="#7BA0D1"/>
<path fill-rule="evenodd" clip-rule="evenodd" d="M203.639 277.178L164.818 199.777L125.997 277.178H203.639Z" fill="#7A9FBC"/>
<path fill-rule="evenodd" clip-rule="evenodd" d="M204.061 277.178H165.505V199.777L204.061 277.178Z" fill="#598CBD"/>
<path fill-rule="evenodd" clip-rule="evenodd" d="M164.454 199.777V223.633C164.058 225.432 163.628 227.187 162.031 227.187C158.935 227.187 161.256 220.112 158.419 220.6C155.954 221.024 152.129 228.069 149.137 231.035L164.454 199.777Z" fill="#DEFAFF"/>
<path fill-rule="evenodd" clip-rule="evenodd" d="M175.012 218.977C173.772 217.928 172.808 217.346 172.429 217.642C170.867 218.86 172.949 222.27 170.867 223.244C168.785 224.218 170.086 219.104 167.484 219.834C166.225 220.188 165.879 221.91 165.505 223.593V199.777L175.012 218.977Z" fill="#BCD2DF"/>
<path fill-rule="evenodd" clip-rule="evenodd" d="M213.391 287.213C198.284 274.751 185.521 263.889 169.646 247.074C165.004 242.157 158.882 234.667 154.783 233.937C143.776 231.977 133.839 242.077 124.871 251.729C115.088 262.26 105.304 272.791 95.5204 283.322C112.871 290.589 131.266 285.36 149.243 286.106C168.015 286.885 186.434 294.226 205.175 296.076C207.923 296.348 210.892 296.412 213.168 294.03C215.445 291.647 216.344 285.859 214.187 283.227" fill="#E2F8F7"/>
<path fill-rule="evenodd" clip-rule="evenodd" d="M124.973 251.74C133.594 242.485 143.234 232.815 153.62 233.754V286.428C152.225 286.303 150.828 286.205 149.429 286.147C131.39 285.4 112.932 290.634 95.5204 283.36C105.338 272.82 115.156 262.28 124.973 251.74Z" fill="#CCEFEA"/>
<path fill-rule="evenodd" clip-rule="evenodd" d="M260.234 292.289C246.791 281.112 235.434 271.371 221.308 256.291C217.177 251.882 211.729 245.164 208.081 244.509C198.287 242.752 189.444 251.81 181.464 260.466C172.758 269.91 164.052 279.355 155.346 288.799C170.786 295.317 187.155 290.627 203.151 291.296C219.856 291.995 236.247 298.578 252.923 300.238C255.369 300.481 258.011 300.539 260.037 298.402C262.063 296.265 262.863 291.075 260.943 288.714" fill="#E2F8F7"/>
<path fill-rule="evenodd" clip-rule="evenodd" d="M181.585 260.333C189.266 252.106 197.854 243.51 207.107 244.345V291.166C205.864 291.055 204.62 290.968 203.374 290.916C187.303 290.253 170.857 294.905 155.346 288.439C164.092 279.071 172.839 269.702 181.585 260.333Z" fill="#CCEFEA"/>
<path fill-rule="evenodd" clip-rule="evenodd" d="M152.963 244.949C152.058 244.827 151.351 243.985 150.439 244.056C149.84 244.103 149.369 244.537 148.801 244.718C147.749 245.053 146.602 244.472 145.492 244.568C144.388 244.664 143.363 245.426 142.279 245.212C141.821 245.122 141.427 244.866 140.994 244.704C139.803 244.26 138.434 244.559 137.175 244.315C136.156 244.118 135.141 243.564 134.14 243.83C133.611 243.97 133.186 244.322 132.781 244.663C132.438 244.951 132.095 245.24 131.753 245.529C131.702 245.571 131.648 245.62 131.642 245.682C131.631 245.794 131.77 245.863 131.887 245.898C135.217 246.918 138.844 246.047 142.358 246.047C145.235 246.047 148.076 246.64 150.951 246.73C151.46 246.746 151.986 246.743 152.453 246.558C152.919 246.374 153.314 245.962 153.296 245.499C153.288 245.3 153.199 245.099 153.029 244.974" fill="#CCEFEA"/>
<path fill-rule="evenodd" clip-rule="evenodd" d="M208.398 317.754C208.398 321.453 224.833 324.452 245.107 324.452C265.38 324.452 281.815 321.453 281.815 317.754C281.815 314.055 265.38 311.056 245.107 311.056C224.833 311.056 208.398 314.055 208.398 317.754Z" fill="#7BA0D1"/>
<path fill-rule="evenodd" clip-rule="evenodd" d="M281.815 317.754L245.106 244.819L208.398 317.754H281.815Z" fill="#7A9FBC"/>
<path fill-rule="evenodd" clip-rule="evenodd" d="M280.999 317.754H245.083V244.819L280.999 317.754Z" fill="#598CBD"/>
<path fill-rule="evenodd" clip-rule="evenodd" d="M245.198 244.819V267.539C244.815 269.252 244.401 270.924 242.858 270.924C239.869 270.924 242.11 264.185 239.371 264.65C236.991 265.053 233.298 271.763 230.409 274.588L245.198 244.819Z" fill="#DEFAFF"/>
<path fill-rule="evenodd" clip-rule="evenodd" d="M254.062 262.818C252.891 261.835 251.981 261.289 251.623 261.567C250.148 262.709 252.114 265.906 250.148 266.819C248.182 267.732 249.411 262.937 246.952 263.622C245.763 263.953 245.437 265.568 245.083 267.146V244.819L254.062 262.818Z" fill="#BCD2DF"/>
<path fill-rule="evenodd" clip-rule="evenodd" d="M158.167 322.523C158.167 326.222 174.602 329.222 194.876 329.222C215.149 329.222 231.584 326.222 231.584 322.523C231.584 318.824 215.149 315.825 194.876 315.825C174.602 315.825 158.167 318.824 158.167 322.523Z" fill="#7BA0D1"/>
<path fill-rule="evenodd" clip-rule="evenodd" d="M231.584 323.053L194.876 250.118L158.167 323.053H231.584Z" fill="#98B4DB"/>
<path fill-rule="evenodd" clip-rule="evenodd" d="M231.333 323.053H195.417V250.118L231.333 323.053Z" fill="#598CBD"/>
<path fill-rule="evenodd" clip-rule="evenodd" d="M195.532 250.118V272.838C195.149 274.551 194.735 276.223 193.192 276.223C190.203 276.223 192.444 269.484 189.705 269.949C187.325 270.352 183.631 277.062 180.743 279.887L195.532 250.118Z" fill="#DEFAFF"/>
<path fill-rule="evenodd" clip-rule="evenodd" d="M204.396 268.117C203.225 267.134 202.315 266.588 201.957 266.866C200.482 268.008 202.448 271.205 200.482 272.118C198.515 273.031 199.744 268.236 197.286 268.921C196.097 269.252 195.771 270.867 195.417 272.445V250.118L204.396 268.117Z" fill="#BCD2DF"/>
<path fill-rule="evenodd" clip-rule="evenodd" d="M129.948 276.343C129.948 278.535 145.792 280.312 165.336 280.312C184.88 280.312 200.724 278.535 200.724 276.343C200.724 274.151 184.88 272.373 165.336 272.373C145.792 272.373 129.948 274.151 129.948 276.343Z" fill="#9CB8DC"/>
<path fill-rule="evenodd" clip-rule="evenodd" d="M200.724 275.966L165.336 235.281L129.948 275.966H200.724Z" fill="#7A9FBC"/>
<path fill-rule="evenodd" clip-rule="evenodd" d="M201.457 275.966H166.069V235.281L201.457 275.966Z" fill="#598CBD"/>
<path fill-rule="evenodd" clip-rule="evenodd" d="M164.672 235.281V252.712C164.222 253.483 163.549 254.069 162.382 254.13C158.772 254.319 162.081 248.365 159.875 248.365C157.669 248.365 157.368 252.902 154.962 253.091C152.802 253.26 154.354 249.933 152.524 249.929L164.672 235.281Z" fill="#F7FEFF"/>
<path fill-rule="evenodd" clip-rule="evenodd" d="M177.161 248.384C176.41 248.433 175.867 248.658 175.785 249.183C175.479 251.164 177.113 253.427 174.458 254.087C171.803 254.747 170.578 248.335 168.434 248.523C166.983 248.651 167.026 251.065 166.069 252.673V235.281L177.161 248.384Z" fill="#D6E4EC"/>
<path fill-rule="evenodd" clip-rule="evenodd" d="M335.884 327.731L277.785 261.246L219.686 327.731H335.884Z" fill="#7A9FBC"/>
<path fill-rule="evenodd" clip-rule="evenodd" d="M336.482 327.731H278.382V261.246L336.482 327.731Z" fill="#598CBD"/>
<path fill-rule="evenodd" clip-rule="evenodd" d="M278.663 261.246V289.229C277.901 290.465 276.76 291.406 274.78 291.504C268.659 291.808 274.27 282.249 270.53 282.249C266.789 282.249 266.279 289.532 262.198 289.836C258.537 290.108 261.168 284.766 258.064 284.76L278.663 261.246Z" fill="#F7FEFF"/>
<path fill-rule="evenodd" clip-rule="evenodd" d="M296.868 282.28C295.617 282.359 294.712 282.72 294.577 283.563C294.066 286.742 296.789 290.375 292.364 291.435C287.939 292.495 285.897 282.201 282.324 282.504C279.906 282.709 279.978 286.584 278.382 289.164V261.246L296.868 282.28Z" fill="#D6E4EC"/>
<path fill-rule="evenodd" clip-rule="evenodd" d="M247.818 317.724C234.375 306.547 223.018 296.807 208.891 281.727C204.76 277.317 199.312 270.599 195.665 269.945C185.87 268.187 177.027 277.245 169.047 285.901C160.341 295.346 151.635 304.79 142.929 314.234C158.369 320.752 174.738 316.062 190.735 316.731C207.44 317.43 223.83 324.013 240.507 325.673C242.953 325.916 245.594 325.974 247.62 323.837C249.646 321.701 250.446 316.51 248.527 314.149" fill="#E2F8F7"/>
<path fill-rule="evenodd" clip-rule="evenodd" d="M169.169 285.768C176.849 277.541 185.437 268.945 194.69 269.78V316.602C193.447 316.49 192.203 316.403 190.957 316.352C174.886 315.688 158.441 320.34 142.929 313.875C151.676 304.506 160.422 295.137 169.169 285.768Z" fill="#CCEFEA"/>
<path fill-rule="evenodd" clip-rule="evenodd" d="M87.0546 280.548C87.0546 283.014 104.317 285.014 125.611 285.014C146.906 285.014 164.168 283.014 164.168 280.548C164.168 278.082 146.906 276.083 125.611 276.083C104.317 276.083 87.0546 278.082 87.0546 280.548Z" fill="#98B4DB"/>
<path fill-rule="evenodd" clip-rule="evenodd" d="M164.168 280.262L125.611 232.631L87.0546 280.262H164.168Z" fill="#7A9FBC"/>
<path fill-rule="evenodd" clip-rule="evenodd" d="M164.026 280.262H125.997V232.631L164.026 280.262Z" fill="#598CBD"/>
<path fill-rule="evenodd" clip-rule="evenodd" d="M125.512 232.631V247.778C125.115 248.92 124.686 250.035 123.088 250.035C119.992 250.035 122.314 245.542 119.476 245.852C117.012 246.121 113.186 250.594 110.195 252.477L125.512 232.631Z" fill="#DEFAFF"/>
<path fill-rule="evenodd" clip-rule="evenodd" d="M134.976 244.631C133.805 243.976 132.895 243.611 132.537 243.797C131.062 244.558 133.029 246.689 131.062 247.298C129.096 247.907 130.325 244.71 127.867 245.167C126.677 245.388 126.351 246.464 125.997 247.516V232.631L134.976 244.631Z" fill="#BCD2DF"/>
<path fill-rule="evenodd" clip-rule="evenodd" d="M266.893 324.562L220.149 266.015L173.406 324.562H266.893Z" fill="#7A9FBC"/>
<path fill-rule="evenodd" clip-rule="evenodd" d="M267.258 324.562H220.25V266.015L267.258 324.562Z" fill="#598CBD"/>
<path fill-rule="evenodd" clip-rule="evenodd" d="M220.075 266.015V284.191C219.583 285.561 219.05 286.899 217.067 286.899C213.223 286.899 216.105 281.508 212.583 281.879C209.524 282.203 204.774 287.57 201.061 289.83L220.075 266.015Z" fill="#DEFAFF"/>
<path fill-rule="evenodd" clip-rule="evenodd" d="M231.87 280.414C230.355 279.628 229.177 279.191 228.713 279.413C226.805 280.327 229.35 282.884 226.805 283.615C224.26 284.346 225.851 280.509 222.67 281.057C221.131 281.322 220.709 282.614 220.25 283.876V266.015L231.87 280.414Z" fill="#BCD2DF"/>
<path fill-rule="evenodd" clip-rule="evenodd" d="M159.958 303.679L127.739 257.536L95.5204 303.679H159.958Z" fill="#7A9FBC"/>
<path fill-rule="evenodd" clip-rule="evenodd" d="M160.474 303.679H128.255V257.536L160.474 303.679Z" fill="#598CBD"/>
<path fill-rule="evenodd" clip-rule="evenodd" d="M127.95 257.536V271.926C127.622 273.011 127.267 274.069 125.944 274.069C123.382 274.069 125.304 269.802 122.955 270.096C120.916 270.351 117.75 274.601 115.274 276.39L127.95 257.536Z" fill="#C6D9E4"/>
<path fill-rule="evenodd" clip-rule="evenodd" d="M136.178 268.736C135.144 268.124 134.341 267.785 134.025 267.957C132.724 268.668 134.459 270.657 132.724 271.225C130.989 271.794 132.073 268.81 129.904 269.236C128.855 269.442 128.567 270.447 128.255 271.429V257.536L136.178 268.736Z" fill="#9EB9DD"/>
<path fill-rule="evenodd" clip-rule="evenodd" d="M168.123 286.448C162.651 283.025 157.18 279.602 151.708 276.178C148.535 274.193 145.178 272.146 141.388 271.875C135.213 271.434 129.911 275.726 125.388 279.742C119.759 284.74 114.13 289.737 108.501 294.735C110.806 296.339 113.762 296.784 116.597 297.124C130.872 298.834 145.338 299.095 159.671 297.901C161.537 297.745 163.452 297.552 165.122 296.743C166.791 295.934 168.183 294.367 168.185 292.588C168.188 290.336 166.067 288.044 167.205 286.067" fill="#E2F8F7"/>
<path fill-rule="evenodd" clip-rule="evenodd" d="M125.347 279.742C129.844 275.739 135.114 271.462 141.248 271.871V298.636C133.002 298.611 124.758 298.11 116.578 297.127C113.749 296.787 110.801 296.343 108.501 294.738C114.117 289.739 119.732 284.741 125.347 279.742Z" fill="#CCEFEA"/>
<path fill-rule="evenodd" clip-rule="evenodd" d="M156.973 324.552L98.8741 258.066L40.7748 324.552H156.973Z" fill="#7A9FBC"/>
<path fill-rule="evenodd" clip-rule="evenodd" d="M157.006 324.552H98.9067V258.066L157.006 324.552Z" fill="#598CBD"/>
<path fill-rule="evenodd" clip-rule="evenodd" d="M98.6233 258.066V286.049C97.8608 287.285 96.7198 288.227 94.7403 288.325C88.6196 288.628 94.23 279.07 90.4897 279.07C86.7491 279.07 86.239 286.353 82.1585 286.656C78.4974 286.928 81.1279 281.586 78.0244 281.58L98.6233 258.066Z" fill="#F7FEFF"/>
<path fill-rule="evenodd" clip-rule="evenodd" d="M117.393 279.1C116.141 279.18 115.236 279.541 115.101 280.384C114.59 283.563 117.313 287.196 112.889 288.255C108.464 289.315 106.422 279.022 102.848 279.324C100.43 279.529 100.502 283.404 98.9067 285.985V258.066L117.393 279.1Z" fill="#D6E4EC"/>
<path fill-rule="evenodd" clip-rule="evenodd" d="M220.185 325.082L162.086 258.596L103.986 325.082H220.185Z" fill="#7A9FBC"/>
<path fill-rule="evenodd" clip-rule="evenodd" d="M220.782 325.082H162.683V258.596L220.782 325.082Z" fill="#598CBD"/>
<path fill-rule="evenodd" clip-rule="evenodd" d="M162.964 258.596V286.579C162.201 287.815 161.06 288.757 159.081 288.855C152.96 289.158 158.57 279.6 154.83 279.6C151.089 279.6 150.579 286.883 146.499 287.186C142.838 287.458 145.468 282.116 142.365 282.11L162.964 258.596Z" fill="#F7FEFF"/>
<path fill-rule="evenodd" clip-rule="evenodd" d="M181.169 279.63C179.917 279.71 179.012 280.071 178.877 280.914C178.366 284.093 181.089 287.726 176.665 288.785C172.24 289.845 170.198 279.552 166.624 279.854C164.206 280.059 164.278 283.935 162.683 286.515V258.596L181.169 279.63Z" fill="#D6E4EC"/>
<path fill-rule="evenodd" clip-rule="evenodd" d="M240.568 236.087C240.568 234.327 242.521 232.9 244.93 232.9C245.417 232.9 245.883 232.961 246.32 233.068C246.403 230.182 249.375 227.862 253.031 227.862C256.509 227.862 259.37 229.962 259.711 232.652C260.145 232.521 260.62 232.447 261.118 232.447C262.676 232.447 264.004 233.155 264.541 234.154C264.851 234.09 265.178 234.053 265.516 234.053C267.49 234.053 269.09 235.222 269.09 236.663C269.09 238.105 267.49 239.274 265.516 239.274C265.434 239.274 265.353 239.268 265.272 239.264C265.207 239.27 265.141 239.274 265.075 239.274H244.447C244.195 239.274 243.955 239.228 243.734 239.149C241.907 238.769 240.568 237.543 240.568 236.087Z" fill="white"/>
<path fill-rule="evenodd" clip-rule="evenodd" d="M204.359 224.393C202.2 224.278 200.497 222.955 200.497 221.338C200.497 219.828 201.982 218.574 203.937 218.321C204.109 217.391 205.16 216.675 206.434 216.675C206.627 216.675 206.815 216.693 206.996 216.724C207.674 214.296 210.162 212.495 213.129 212.495C216.38 212.495 219.057 214.658 219.407 217.438C219.538 217.428 219.67 217.422 219.805 217.422C221.648 217.422 223.177 218.431 223.493 219.759C225.109 219.864 226.377 220.86 226.377 222.075C226.377 223.361 224.96 224.403 223.211 224.403C223.138 224.403 223.066 224.398 222.994 224.395C222.937 224.4 222.879 224.403 222.82 224.403H204.542C204.514 224.403 204.486 224.4 204.458 224.399C204.45 224.399 204.441 224.398 204.433 224.397C204.408 224.396 204.383 224.396 204.359 224.393Z" fill="white"/>
<path fill-rule="evenodd" clip-rule="evenodd" d="M101.968 230.786C99.9411 230.676 98.3425 229.407 98.3425 227.858C98.3425 226.412 99.7366 225.21 101.572 224.967C101.733 224.076 102.72 223.39 103.916 223.39C104.097 223.39 104.273 223.407 104.443 223.437C105.08 221.11 107.416 219.384 110.201 219.384C113.254 219.384 115.766 221.456 116.095 224.121C116.218 224.111 116.342 224.105 116.468 224.105C118.198 224.105 119.634 225.072 119.931 226.345C121.448 226.445 122.639 227.4 122.639 228.565C122.639 229.797 121.308 230.795 119.666 230.795C119.598 230.795 119.53 230.791 119.463 230.788C119.409 230.793 119.354 230.795 119.299 230.795H102.14C102.114 230.795 102.088 230.793 102.062 230.792C102.053 230.791 102.045 230.791 102.037 230.79C102.015 230.789 101.991 230.789 101.968 230.786Z" fill="white"/>
</g>
</g>
</g>
</g>
<defs>
<linearGradient id="paint0_linear_1_1261" x1="18.2793" y1="48.6052" x2="18.2793" y2="333.54" gradientUnits="userSpaceOnUse">
<stop stop-color="#8DC1E9"/>
<stop offset="1" stop-color="white"/>
</linearGradient>
<clipPath id="clip0_1_1261">
<rect width="338.623" height="317.929" fill="white" transform="translate(0.703125 0.535278)"/>
</clipPath>
</defs>
</svg>
